<?xml version="1.0" encoding="UTF-8"?>
<svg width="46px" height="46px" viewBox="0 0 46 46" version="1.1" xmlns="http://www.w3.org/2000/svg" xmlns:xlink="http://www.w3.org/1999/xlink">
    <!-- Generator: Sketch 48.2 (47327) - http://www.bohemiancoding.com/sketch -->
    <title>support-17</title>
    <desc>Created with Sketch.</desc>
    <defs></defs>
    <g id="Desktop" stroke="none" stroke-width="1" fill="none" fill-rule="evenodd" transform="translate(-966.000000, -1582.000000)">
        <g id="support-17" transform="translate(966.000000, 1582.000000)">
            <path d="M33.06635,18.59039 L31.82813,19.82861 L26.17188,14.17138 L27.40961,12.93365 C24.60431,11.70898 21.39569,11.70898 18.5904,12.93365 L19.82862,14.17187 L14.17139,19.82812 L12.93366,18.59039 C11.70899,21.39569 11.70899,24.60431 12.93366,27.4096 L14.17188,26.17138 L19.82813,31.82861 L18.5904,33.06634 C21.3957,34.29101 24.60432,34.29101 27.40961,33.06634 L26.17139,31.82812 L31.82862,26.17187 L33.06635,27.4096 C34.29102,24.60431 34.29102,21.39569 33.06635,18.59039 Z" id="Shape"></path>
            <path d="M12.93365,18.59039 L4.17108,9.82782 C-1.34796,17.71118 -1.34821,28.28864 4.17102,36.17224 L12.93365,27.40961 C11.70898,24.60431 11.70898,21.39569 12.93365,18.59039 Z" id="Shape" fill="#EB6456" fill-rule="nonzero"></path>
            <path d="M33.06635,27.40961 L41.82892,36.17218 C47.34796,28.28882 47.34821,17.71136 41.82898,9.82776 L33.06635,18.59039 C34.29102,21.39569 34.29102,24.60431 33.06635,27.40961 Z" id="Shape" fill="#EB6456" fill-rule="nonzero"></path>
            <path d="M27.40961,12.93365 L36.17224,4.17102 C28.28863,-1.34821 17.71118,-1.34796 9.82782,4.17108 L18.59039,12.93365 C21.39569,11.70898 24.60431,11.70898 27.40961,12.93365 Z" id="Shape" fill="#EB6456" fill-rule="nonzero"></path>
            <path d="M18.59039,33.06635 L9.82776,41.82898 C17.71137,47.34821 28.28882,47.34796 36.17218,41.82892 L27.40961,33.06635 C24.60431,34.29102 21.39569,34.29102 18.59039,33.06635 Z" id="Shape" fill="#EB6456" fill-rule="nonzero"></path>
            <path d="M30.7782,15.2218 C31.77674,16.22034 32.53278,17.36816 33.06635,18.59039 L41.82898,9.82776 C41.07092,8.745 40.22974,7.70288 39.26343,6.73657 C38.29712,5.77026 37.25501,4.92907 36.17224,4.17102 L27.40961,12.93365 C28.63184,13.46722 29.77966,14.22327 30.7782,15.2218 Z" id="Shape" fill="#FFB43E" fill-rule="nonzero"></path>
            <path d="M41.82892,36.17218 L33.06635,27.40961 C32.53278,28.63184 31.77674,29.77967 30.7782,30.7782 C29.77966,31.77673 28.63184,32.53278 27.40961,33.06635 L36.17218,41.82892 C37.255,41.07086 38.29712,40.22974 39.26343,39.26343 C40.22974,38.29712 41.07086,37.255 41.82892,36.17218 Z" id="Shape" fill="#FFB43E" fill-rule="nonzero"></path>
            <path d="M15.2218,30.7782 C14.22326,29.77966 13.46722,28.63184 12.93365,27.40961 L4.17102,36.17224 C4.92908,37.255 5.77026,38.29712 6.73657,39.26343 C7.70288,40.22974 8.74499,41.07093 9.82776,41.82898 L18.59039,33.06635 C17.36816,32.53278 16.22034,31.77673 15.2218,30.7782 Z" id="Shape" fill="#FFB43E" fill-rule="nonzero"></path>
            <path d="M15.2218,15.2218 C16.22034,14.22326 17.36816,13.46722 18.59039,12.93365 L9.82782,4.17108 C8.745,4.92914 7.70288,5.77026 6.73657,6.73657 C5.77026,7.70288 4.92914,8.745 4.17108,9.82782 L12.93365,18.59039 C13.46722,17.36816 14.22327,16.22034 15.2218,15.2218 Z" id="Shape" fill="#FFB43E" fill-rule="nonzero"></path>
        </g>
    </g>
</svg>