<?xml version="1.0" encoding="UTF-8"?>
<svg width="46px" height="46px" viewBox="0 0 46 46" version="1.1" xmlns="http://www.w3.org/2000/svg" xmlns:xlink="http://www.w3.org/1999/xlink">
    <!-- Generator: Sketch 48.2 (47327) - http://www.bohemiancoding.com/sketch -->
    <title>settings-gear-63</title>
    <desc>Created with Sketch.</desc>
    <defs></defs>
    <g id="Desktop" stroke="none" stroke-width="1" fill="none" fill-rule="evenodd" transform="translate(-194.000000, -1582.000000)">
        <g id="settings-gear-63" transform="translate(194.000000, 1582.000000)" fill-rule="nonzero">
            <path d="M45,18 L39.23193,18 C38.91894,16.98047 38.51123,15.99512 38.01416,15.05664 L42.0918,10.97949 C42.2793,10.79199 42.38477,10.53808 42.38477,10.27246 C42.38477,10.00684 42.2793,9.75293 42.0918,9.56543 L36.43506,3.9082 C36.04444,3.51758 35.41162,3.51758 35.021,3.9082 L30.94288,7.98535 C30.00488,7.48926 29.01953,7.08105 28,6.76855 L28,1 C28,0.44727 27.55225,0 27,0 L19,0 C18.44775,0 18,0.44727 18,1 L18,6.76855 C16.98047,7.08105 15.99512,7.48925 15.05713,7.98535 L10.979,3.9082 C10.58838,3.51758 9.95556,3.51758 9.56494,3.9082 L3.9082,9.56543 C3.7207,9.75293 3.61523,10.00684 3.61523,10.27246 C3.61523,10.53808 3.7207,10.79199 3.9082,10.97949 L7.98584,15.05664 C7.48877,15.99512 7.08105,16.98047 6.76807,18 L1,18 C0.44775,18 0,18.44727 0,19 L0,27 C0,27.55273 0.44775,28 1,28 L6.76807,28 C7.08106,29.01953 7.48877,30.00488 7.98584,30.94336 L3.9082,35.02051 C3.7207,35.20801 3.61523,35.46192 3.61523,35.72754 C3.61523,35.99316 3.7207,36.24707 3.9082,36.43457 L9.56494,42.0918 C9.95556,42.48242 10.58838,42.48242 10.979,42.0918 L15.05712,38.01465 C15.99511,38.51074 16.98046,38.91895 17.99999,39.23145 L17.99999,45 C17.99999,45.55273 18.44774,46 18.99999,46 L26.99999,46 C27.55224,46 27.99999,45.55273 27.99999,45 L27.99999,39.23145 C29.01952,38.91895 30.00487,38.51075 30.94286,38.01465 L35.021,42.0918 C35.41162,42.48242 36.04444,42.48242 36.43506,42.0918 L42.0918,36.43457 C42.2793,36.24707 42.38477,35.99316 42.38477,35.72754 C42.38477,35.46192 42.2793,35.20801 42.0918,35.02051 L38.01416,30.94336 C38.51123,30.00488 38.91895,29.01953 39.23193,28 L45,28 C45.55225,28 46,27.55273 46,27 L46,19 C46,18.44727 45.55225,18 45,18 Z M23,30 C19.13403,30 16,26.86597 16,23 C16,19.13397 19.13403,16 23,16 C26.86603,16 30,19.13397 30,23 C30,26.86597 26.86603,30 23,30 Z" id="Shape" fill="#EB6456"></path>
            <path d="M23,12 C16.92487,12 12,16.92487 12,23 C12,29.07513 16.92487,34 23,34 C29.07513,34 34,29.07513 34,23 C34,16.92487 29.07513,12 23,12 Z M23,30 C19.13403,30 16,26.86597 16,23 C16,19.13397 19.13403,16 23,16 C26.86603,16 30,19.13397 30,23 C30,26.86597 26.86603,30 23,30 Z" id="Shape" fill="#FFB43E"></path>
        </g>
    </g>
</svg>