<?xml version="1.0" encoding="UTF-8"?>
<svg width="167px" height="164px" viewBox="0 0 167 164" version="1.1" xmlns="http://www.w3.org/2000/svg" xmlns:xlink="http://www.w3.org/1999/xlink">
    <!-- Generator: Sketch 48.2 (47327) - http://www.bohemiancoding.com/sketch -->
    <title>Group 2</title>
    <desc>Created with Sketch.</desc>
    <defs>
        <polygon id="path-1" points="0 0 79.4482759 0 79.4482759 96 0 96"></polygon>
        <radialGradient cx="50%" cy="37.6183052%" fx="50%" fy="37.6183052%" r="62.3816948%" gradientTransform="translate(0.500000,0.376183),scale(1.000000,0.827586),rotate(90.000000),translate(-0.500000,-0.376183)" id="radialGradient-3">
            <stop stop-color="#FFB43E" offset="0%"></stop>
            <stop stop-color="#EB6456" offset="100%"></stop>
        </radialGradient>
        <path d="M0,122.569119 L15.8318631,122.569119 C15.9353393,122.569119 34.4575843,121.741309 34.4575843,141.867436 C34.4575843,141.867436 34.5610605,161.320967 15.8318631,161.372705 L0,161.372705 L0,155.784989 L2.32821516,155.784989 L2.32821516,128.156836 L0,128.156836 L0,122.569119 Z M27.0072958,141.867436 C27.0072958,128.260312 15.8318631,128.156836 15.8318631,128.156836 L9.72676554,128.156836 L9.72676554,155.784989 L15.8318631,155.784989 C27.0072958,155.784989 27.0072958,141.867436 27.0072958,141.867436 Z M47.8060179,155.784989 L47.8060179,128.156836 L45.4260646,128.156836 L45.4260646,122.56909 L60.7405465,122.569119 C64.3622145,122.569119 74.1407182,122.465643 74.1407182,134.6241 C74.1407182,144.661294 67.8804063,145.644318 67.8804063,145.644318 C71.6572887,150.093796 71.0881694,155.164131 76.8311002,155.784989 L76.8311002,161.372705 C73.7785514,162.355729 69.070383,162.200515 67.1560727,158.992752 L60.5335941,146.886033 L55.2045683,146.886033 L55.2045683,155.784989 L57.5845215,155.784989 L57.5845215,161.372705 L45.4260646,161.372705 L45.4260646,155.784989 L47.8060179,155.784989 Z M60.7405465,141.298317 C60.7405465,141.246579 66.7421678,141.76396 66.7421678,134.727576 C66.7421678,127.691193 60.7405465,128.156836 60.7405465,128.156836 L55.2045683,128.156836 L55.2045683,141.298317 L60.7405465,141.298317 Z M104.407515,122 C123.705832,122 122.878022,142.281341 122.878022,142.281341 C122.878022,142.281341 123.240189,161.993563 104.407515,161.993563 C104.407515,161.993563 86.0404846,162.924849 86.0404846,142.384817 C86.0404846,142.384817 85.4713653,122 104.407515,122 Z M104.614468,155.888465 C118.738973,155.733251 118.738973,128.260312 104.407515,128.260312 C90.0243194,128.260312 90.2312718,156.043679 104.614468,155.888465 Z M136.692099,155.784989 L136.692099,128.156836 L134.363884,128.156836 L134.363884,122.569119 L149.83358,122.569119 C167.734967,122.569119 167.838444,147.972534 149.781842,147.972534 L144.090649,147.972534 L144.090649,155.784989 L146.418864,155.784989 L146.418864,161.372705 L134.363884,161.372705 L134.363884,155.784989 L136.692099,155.784989 Z M148.695341,128.156836 L144.090649,128.156836 L144.090649,142.384817 L148.695341,142.384817 C148.695341,142.384817 155.886939,142.384817 155.886939,135.296695 C155.886939,128.156836 148.695341,128.156836 148.695341,128.156836 Z" id="path-4"></path>
    </defs>
    <g id="Desktop" stroke="none" stroke-width="1" fill="none" fill-rule="evenodd" transform="translate(-636.000000, -211.000000)">
        <g id="Group-2" transform="translate(638.000000, 211.000000)">
            <g id="Group" transform="translate(42.000000, 0.000000)">
                <g id="Page-1">
                    <circle id="Oval" fill="#FFFFFF" cx="39.5" cy="37.5" r="20.5"></circle>
                    <mask id="mask-2" fill="white">
                        <use xlink:href="#path-1"></use>
                    </mask>
                    <g id="Clip-2"></g>
                    <path d="M39.6583321,55.1699643 C31.1223717,55.1699643 24.2027376,48.2430312 24.2027376,39.6986551 C24.2027376,31.1540156 31.1223717,24.227346 39.6583321,24.227346 C48.1942925,24.227346 55.1139266,31.1540156 55.1139266,39.6986551 C55.1139266,48.2430312 48.1942925,55.1699643 39.6583321,55.1699643 M67.8132954,11.6467357 C52.3000876,-3.88224523 27.1481135,-3.88224523 11.6349058,11.6467357 C-3.87830193,27.1757166 -3.87830193,52.3532643 11.6349058,67.8822452 C11.8814061,68.1289962 12.130011,68.3715336 12.3812466,68.610121 L39.743305,96 L68.5499024,67.1519994 L68.5246473,67.1519994 C83.32282,51.5737737 83.0857904,26.9344959 67.8132954,11.6467357" id="Fill-1" fill="url(#radialGradient-3)" mask="url(#mask-2)"></path>
                </g>
            </g>
            <g id="DROP">
                <use fill="#FFFFFF" fill-rule="evenodd" xlink:href="#path-4"></use>
                <use fill="black" fill-opacity="1" xlink:href="#path-4"></use>
            </g>
        </g>
    </g>
</svg>